<?xml version="1.0" encoding="utf-8"?>
<!-- Generator: Adobe Illustrator 16.0.0, SVG Export Plug-In . SVG Version: 6.00 Build 0)  -->
<!DOCTYPE svg PUBLIC "-//W3C//DTD SVG 1.1//EN" "http://www.w3.org/Graphics/SVG/1.1/DTD/svg11.dtd">
<svg version="1.1" xmlns="http://www.w3.org/2000/svg" xmlns:xlink="http://www.w3.org/1999/xlink" x="0px" y="0px"
	 width="360.879px" height="76.442px" viewBox="0 0 360.879 76.442" enable-background="new 0 0 360.879 76.442"
	 xml:space="preserve">
<g id="Layer_1">
	<g>
		<rect x="55.659" y="-0.001" fill="#FF3033" width="48.678" height="20.831"/>
		<rect y="55.545" fill="#FF9933" width="48.678" height="20.831"/>
		<polygon fill="#0085C9" points="83.47,27.772 83.47,55.545 55.621,55.545 55.621,76.376 104.262,76.376 104.3,76.376 
			104.3,27.772 		"/>
		<rect x="27.848" y="27.772" fill="#FF6630" width="48.678" height="20.831"/>
		<polygon fill="#0085C9" points="48.677,-0.001 0.036,-0.001 0.036,48.603 20.866,48.603 20.866,20.83 48.677,20.83 		"/>
	</g>
	<g>
		<path fill="#FFFFFF" d="M170.155,45.536c0,3.607-1.313,6.374-3.941,8.3c-2.628,1.927-6.392,2.89-11.291,2.89
			c-4.921,0-8.875-0.747-11.858-2.237v-6.782c4.342,2.006,8.384,3.007,12.126,3.007c4.832,0,7.248-1.458,7.248-4.375
			c0-0.935-0.267-1.715-0.801-2.339c-0.535-0.622-1.415-1.269-2.639-1.937c-1.225-0.667-2.929-1.426-5.111-2.271
			c-4.253-1.649-7.13-3.296-8.635-4.943c-1.502-1.649-2.254-3.785-2.254-6.413c0-3.163,1.274-5.618,3.824-7.366
			c2.55-1.748,6.018-2.623,10.405-2.623c4.342,0,8.451,0.881,12.325,2.641l-2.538,5.911c-3.987-1.646-7.338-2.471-10.054-2.471
			c-4.144,0-6.213,1.18-6.213,3.54c0,1.159,0.54,2.137,1.621,2.938c1.08,0.802,3.434,1.904,7.063,3.308
			c3.051,1.182,5.267,2.262,6.647,3.24c1.381,0.98,2.406,2.111,3.074,3.39C169.821,42.225,170.155,43.753,170.155,45.536"/>
		<path fill="#FFFFFF" d="M209.3,56.058h-7.883V33.344c0-2.851-0.573-4.979-1.722-6.38c-1.145-1.404-2.966-2.104-5.459-2.104
			c-3.297,0-5.718,0.984-7.265,2.957c-1.549,1.971-2.321,5.271-2.321,9.903v18.338H176.8V4.084h7.851v13.193
			c0,2.115-0.134,4.375-0.403,6.78h0.503c1.068-1.781,2.554-3.161,4.459-4.142c1.904-0.979,4.126-1.469,6.665-1.469
			c8.951,0,13.426,4.509,13.426,13.527V56.058z"/>
		<path fill="#FFFFFF" d="M234.448,56.726c-5.745,0-10.238-1.676-13.479-5.027c-3.24-3.351-4.86-7.967-4.86-13.846
			c0-6.034,1.504-10.777,4.509-14.228c3.008-3.454,7.139-5.18,12.392-5.18c4.879,0,8.731,1.481,11.56,4.442
			c2.828,2.963,4.24,7.037,4.24,12.227v4.242h-24.614c0.107,3.585,1.076,6.34,2.905,8.267c1.824,1.927,4.396,2.889,7.715,2.889
			c2.184,0,4.214-0.204,6.096-0.617c1.882-0.411,3.902-1.097,6.062-2.053v6.38c-1.913,0.912-3.852,1.557-5.813,1.936
			C239.202,56.538,236.964,56.726,234.448,56.726 M233.01,24.392c-2.493,0-4.492,0.792-5.994,2.373
			c-1.504,1.579-2.4,3.886-2.689,6.913h16.77c-0.044-3.051-0.78-5.361-2.206-6.931C237.465,25.176,235.506,24.392,233.01,24.392"/>
		<rect x="256.066" y="4.084" fill="#FFFFFF" width="7.852" height="51.975"/>
		<path fill="#FFFFFF" d="M291.871,25.06h-9.017v30.998h-7.884V25.06h-6.08v-3.675l6.08-2.404v-2.405
			c0-4.364,1.024-7.597,3.073-9.703c2.048-2.104,5.177-3.155,9.387-3.155c2.761,0,5.478,0.455,8.15,1.368l-2.072,5.945
			c-1.936-0.623-3.787-0.934-5.544-0.934c-1.781,0-3.079,0.55-3.893,1.652c-0.812,1.104-1.218,2.754-1.218,4.96v2.404h9.017V25.06z"
			/>
		<path fill="#FFFFFF" d="M292.927,51.881c0-1.623,0.424-2.871,1.269-3.741c0.847-0.867,2.071-1.302,3.675-1.302
			c1.626,0,2.86,0.451,3.707,1.353c0.847,0.903,1.271,2.133,1.271,3.69c0,1.582-0.428,2.835-1.286,3.759s-2.088,1.387-3.691,1.387
			s-2.828-0.457-3.675-1.37C293.351,54.744,292.927,53.484,292.927,51.881"/>
		<path fill="#FFFFFF" d="M310.656,9.328c0-1.403,0.383-2.484,1.15-3.24c0.768-0.757,1.866-1.136,3.29-1.136
			c1.382,0,2.455,0.379,3.223,1.136c0.771,0.756,1.153,1.837,1.153,3.24c0,1.336-0.383,2.388-1.153,3.155
			c-0.768,0.77-1.841,1.152-3.223,1.152c-1.424,0-2.522-0.383-3.29-1.152C311.039,11.716,310.656,10.664,310.656,9.328
			 M318.972,56.059h-7.852V19.114h7.852V56.059z"/>
		<path fill="#FFFFFF" d="M360.898,37.52c0,6.034-1.55,10.746-4.643,14.13c-3.096,3.384-7.405,5.076-12.929,5.076
			c-3.451,0-6.501-0.778-9.151-2.339c-2.651-1.558-4.688-3.796-6.114-6.713c-1.425-2.918-2.138-6.303-2.138-10.154
			c0-5.991,1.538-10.668,4.61-14.029c3.073-3.362,7.403-5.045,12.994-5.045c5.345,0,9.575,1.721,12.693,5.162
			C359.338,27.047,360.898,31.685,360.898,37.52 M334.009,37.52c0,8.528,3.149,12.793,9.452,12.793
			c6.233,0,9.354-4.265,9.354-12.793c0-8.439-3.14-12.66-9.419-12.66c-3.298,0-5.685,1.092-7.165,3.273
			C334.749,30.316,334.009,33.443,334.009,37.52"/>
	</g>
</g>
<g id="Layer_2">
</g>
</svg>
